<svg id="visual" viewBox="0 0 900 450" width="900" height="450" xmlns="http://www.w3.org/2000/svg" xmlns:xlink="http://www.w3.org/1999/xlink" version="1.1"><path d="M0 100L75 107.5C150 115 300 130 450 132.3C600 134.7 750 124.3 825 119.2L900 114L900 0L825 0C750 0 600 0 450 0C300 0 150 0 75 0L0 0Z" fill="#b8b3b3"></path><path d="M0 384L75 377.2C150 370.3 300 356.7 450 355.8C600 355 750 367 825 373L900 379L900 112L825 117.2C750 122.3 600 132.7 450 130.3C300 128 150 113 75 105.5L0 98Z" fill="#011627"></path><path d="M0 451L75 451C150 451 300 451 450 451C600 451 750 451 825 451L900 451L900 377L825 371C750 365 600 353 450 353.8C300 354.7 150 368.3 75 375.2L0 382Z" fill="#b8b3b3"></path></svg>