<svg id="visual" viewBox="0 0 900 450" width="900" height="450" xmlns="http://www.w3.org/2000/svg" xmlns:xlink="http://www.w3.org/1999/xlink" version="1.1"><path d="M0 186L37.5 184.5C75 183 150 180 225 185.2C300 190.3 375 203.7 450 200.7C525 197.7 600 178.3 675 172.3C750 166.3 825 173.7 862.5 177.3L900 181L900 0L862.5 0C825 0 750 0 675 0C600 0 525 0 450 0C375 0 300 0 225 0C150 0 75 0 37.5 0L0 0Z" fill="#f4f4f4"></path><path d="M0 294L37.5 294.7C75 295.3 150 296.7 225 299.7C300 302.7 375 307.3 450 301.3C525 295.3 600 278.7 675 276.3C750 274 825 286 862.5 292L900 298L900 179L862.5 175.3C825 171.7 750 164.3 675 170.3C600 176.3 525 195.7 450 198.7C375 201.7 300 188.3 225 183.2C150 178 75 181 37.5 182.5L0 184Z" fill="#737b86"></path><path d="M0 451L37.5 451C75 451 150 451 225 451C300 451 375 451 450 451C525 451 600 451 675 451C750 451 825 451 862.5 451L900 451L900 296L862.5 290C825 284 750 272 675 274.3C600 276.7 525 293.3 450 299.3C375 305.3 300 300.7 225 297.7C150 294.7 75 293.3 37.5 292.7L0 292Z" fill="#011627"></path></svg>